# xmcd
#
# Track frame offsets:
#	150
#	11343
#	23414
#	35434
#	45654
#	58587
#	70981
#	83552
#	95472
#	104379
#	116836
#	128631
#	143913
#	158582
#	171490
#	184719
#	197476
#
# Disc length: 2853 seconds
#
# Revision: 1
# Processed by: cddbd v1.5.2PL0 Copyright (c) Steve Scherf et al.
# Submitted via: audiograbber 1.83.01
#
DISCID=d70b2311
DTITLE=Dolly Parton and Sandy Posey - The Company You Keep
DYEAR=2002
DGENRE=Country
TTITLE0=Dolly Parton - (It Wasn't God Who Made) Honky Tonk Angels
TTITLE1=Dolly Parton - Making Believe
TTITLE2=Dolly Parton - Letter To Heaven
TTITLE3=Dolly Parton - Release Me
TTITLE4=Dolly Parton - Little Blossom
TTITLE5=Dolly Parton - Two Little Orphans
TTITLE6=Dolly Parton - As Long As I Love
TTITLE7=Dolly Parton - The Company You Keep
TTITLE8=Sandy Posey - Born A Woman
TTITLE9=Sandy Posey - Because Of You
TTITLE10=Sandy Posey - As Long As We've Got Us
TTITLE11=Sandy Posey - You Can't Ride On My Coat Tails
TTITLE12=Sandy Posey - Can't Get Used To Sleeping Without You
TTITLE13=Sandy Posey - Fool At Heart
TTITLE14=Sandy Posey - She`s Got You
TTITLE15=Sandy Posey - Anybody Would Want To Touch You
TTITLE16=Sandy Posey - Love Will Turn You Around
EXTD=
EXTT0=
EXTT1=
EXTT2=
EXTT3=
EXTT4=
EXTT5=
EXTT6=
EXTT7=
EXTT8=
EXTT9=
EXTT10=
EXTT11=
EXTT12=
EXTT13=
EXTT14=
EXTT15=
EXTT16=
PLAYORDER=
